<svg width="1280" height="360" viewBox="0 0 1280 360" fill="none" xmlns="http://www.w3.org/2000/svg">
  <defs>
    <linearGradient id="bg" x1="0" y1="0" x2="1280" y2="360" gradientUnits="userSpaceOnUse">
      <stop offset="0" stop-color="#0f172a"/>
      <stop offset="0.52" stop-color="#172554"/>
      <stop offset="1" stop-color="#064e3b"/>
    </linearGradient>
    <linearGradient id="accent" x1="155" y1="55" x2="1040" y2="288" gradientUnits="userSpaceOnUse">
      <stop offset="0" stop-color="#38bdf8"/>
      <stop offset="0.48" stop-color="#a78bfa"/>
      <stop offset="1" stop-color="#34d399"/>
    </linearGradient>
    <pattern id="grid" width="44" height="44" patternUnits="userSpaceOnUse">
      <path d="M44 0H0V44" stroke="#ffffff" stroke-opacity="0.08" stroke-width="1"/>
    </pattern>
    <filter id="softShadow" x="-20%" y="-30%" width="140%" height="160%" color-interpolation-filters="sRGB">
      <feDropShadow dx="0" dy="18" stdDeviation="18" flood-color="#000000" flood-opacity="0.28"/>
    </filter>
  </defs>

  <rect width="1280" height="360" rx="28" fill="url(#bg)"/>
  <rect width="1280" height="360" rx="28" fill="url(#grid)"/>
  <path d="M118 273C250 179 366 315 493 222C603 142 718 62 870 119C989 164 1035 256 1174 168" stroke="url(#accent)" stroke-width="4" stroke-linecap="round" opacity="0.82"/>
  <path d="M106 288C246 198 373 329 506 242C622 166 719 91 862 137C1004 183 1034 284 1187 196" stroke="#ffffff" stroke-width="1.5" stroke-linecap="round" opacity="0.28"/>

  <g filter="url(#softShadow)">
    <rect x="820" y="78" width="330" height="205" rx="18" fill="#020617" fill-opacity="0.74" stroke="#ffffff" stroke-opacity="0.14"/>
    <rect x="844" y="105" width="82" height="10" rx="5" fill="#38bdf8"/>
    <rect x="844" y="133" width="242" height="10" rx="5" fill="#ffffff" fill-opacity="0.56"/>
    <rect x="844" y="160" width="190" height="10" rx="5" fill="#ffffff" fill-opacity="0.38"/>
    <rect x="844" y="206" width="78" height="28" rx="8" fill="#14b8a6" fill-opacity="0.22" stroke="#5eead4" stroke-opacity="0.55"/>
    <rect x="936" y="206" width="88" height="28" rx="8" fill="#6366f1" fill-opacity="0.22" stroke="#a5b4fc" stroke-opacity="0.55"/>
    <rect x="1038" y="206" width="72" height="28" rx="8" fill="#0ea5e9" fill-opacity="0.22" stroke="#7dd3fc" stroke-opacity="0.55"/>
    <text x="861" y="225" fill="#d1fae5" font-family="Segoe UI, Arial, sans-serif" font-size="14" font-weight="600">React</text>
    <text x="954" y="225" fill="#e0e7ff" font-family="Segoe UI, Arial, sans-serif" font-size="14" font-weight="600">FastAPI</text>
    <text x="1056" y="225" fill="#e0f2fe" font-family="Segoe UI, Arial, sans-serif" font-size="14" font-weight="600">Node</text>
  </g>

  <g>
    <text x="96" y="122" fill="#ffffff" font-family="Segoe UI, Arial, sans-serif" font-size="54" font-weight="800" letter-spacing="0">Kittipos</text>
    <text x="99" y="170" fill="#dbeafe" font-family="Segoe UI, Arial, sans-serif" font-size="26" font-weight="600">Full-stack Developer</text>
    <text x="100" y="214" fill="#cbd5e1" font-family="Segoe UI, Arial, sans-serif" font-size="19">Web applications, dashboard systems, AI assistants, and automation workflows.</text>
    <rect x="100" y="246" width="238" height="38" rx="19" fill="#ffffff" fill-opacity="0.1" stroke="#ffffff" stroke-opacity="0.18"/>
    <text x="124" y="271" fill="#f8fafc" font-family="Segoe UI, Arial, sans-serif" font-size="15" font-weight="600">React / Node / FastAPI / .NET</text>
  </g>

  <circle cx="746" cy="84" r="4" fill="#38bdf8">
    <animate attributeName="opacity" values="0.35;1;0.35" dur="2.4s" repeatCount="indefinite"/>
  </circle>
  <circle cx="772" cy="84" r="4" fill="#a78bfa">
    <animate attributeName="opacity" values="1;0.35;1" dur="2.4s" repeatCount="indefinite"/>
  </circle>
  <circle cx="798" cy="84" r="4" fill="#34d399">
    <animate attributeName="opacity" values="0.35;1;0.35" dur="2.4s" repeatCount="indefinite"/>
  </circle>
</svg>
